<svg width="169" height="64" viewBox="0 0 169 64" fill="none" xmlns="http://www.w3.org/2000/svg">
<g id="Logo" opacity="0.7">
<path d="M0 49.7778V9.38666H9.32978V49.7778H0Z" fill="black"/>
<path d="M65.2404 49.7778H56.1382V32.9956C56.1382 31.0613 55.7779 29.6391 55.0573 28.7289C54.3367 27.8187 53.4076 27.3636 52.2698 27.3636C51.0561 27.3636 49.8615 27.8566 48.6858 28.8427C47.5101 29.8287 46.6757 31.0993 46.1827 32.6542V49.7778H37.0804V32.9956C37.0804 31.0234 36.7201 29.6012 35.9996 28.7289C35.279 27.8187 34.3498 27.3636 33.212 27.3636C32.0363 27.3636 30.8606 27.8566 29.6849 28.8427C28.5092 29.8287 27.6559 31.0993 27.1249 32.6542V49.7778H18.0227V19.9111H26.2147V24.9173C27.3145 23.1348 28.7936 21.7695 30.652 20.8213C32.5483 19.8353 34.748 19.3422 37.2511 19.3422C39.7163 19.3422 41.6126 19.9301 42.94 21.1058C44.2674 22.2436 45.1207 23.5899 45.5 25.1449C46.6378 23.2865 48.1359 21.8643 49.9942 20.8782C51.8905 19.8542 54.0144 19.3422 56.3658 19.3422C58.2621 19.3422 59.7981 19.7025 60.9738 20.4231C62.1495 21.1058 63.0407 22.016 63.6476 23.1538C64.2544 24.2916 64.6716 25.5241 64.8991 26.8516C65.1267 28.141 65.2404 29.4116 65.2404 30.6631V49.7778Z" fill="black"/>
<path d="M71.0187 40.8462C71.0187 38.8741 71.5686 37.1484 72.6684 35.6693C73.7683 34.1902 75.2853 33.0335 77.2196 32.1991C79.1538 31.3268 81.3725 30.8907 83.8756 30.8907C85.0892 30.8907 86.2839 31.0044 87.4596 31.232C88.6353 31.4216 89.6593 31.7061 90.5316 32.0853V30.7769C90.5316 29.1461 90.0385 27.8945 89.0525 27.0222C88.0664 26.1499 86.5683 25.7138 84.5582 25.7138C82.8895 25.7138 81.3156 25.9982 79.8364 26.5671C78.3953 27.136 76.8593 27.9514 75.2284 29.0133L72.4978 23.2107C74.4699 21.9212 76.5179 20.9541 78.6418 20.3093C80.8036 19.6646 83.0791 19.3422 85.4684 19.3422C89.9437 19.3422 93.4139 20.4231 95.8791 22.5849C98.3822 24.7087 99.6338 27.7997 99.6338 31.8578V39.6516C99.6338 40.5618 99.7665 41.2065 100.032 41.5858C100.335 41.9271 100.847 42.1357 101.568 42.2116V49.7778C100.809 49.9295 100.089 50.0433 99.4062 50.1191C98.7615 50.195 98.1926 50.2329 97.6996 50.2329C95.9929 50.2329 94.6845 49.8916 93.7742 49.2089C92.9019 48.5262 92.352 47.597 92.1245 46.4213L91.9538 45.1129C90.6264 46.8196 89.0335 48.128 87.1751 49.0382C85.3547 49.9105 83.4394 50.3467 81.4293 50.3467C79.4572 50.3467 77.6747 49.9295 76.0818 49.0951C74.5268 48.2607 73.2942 47.123 72.384 45.6818C71.4738 44.2406 71.0187 42.6287 71.0187 40.8462ZM89.1093 41.984C89.5265 41.6427 89.8679 41.2634 90.1333 40.8462C90.3988 40.429 90.5316 40.0308 90.5316 39.6516V36.9778C89.773 36.6744 88.9197 36.4468 87.9716 36.2951C87.0613 36.1055 86.208 36.0107 85.4116 36.0107C83.7428 36.0107 82.3585 36.3899 81.2587 37.1484C80.1588 37.869 79.6089 38.8361 79.6089 40.0498C79.6089 40.7324 79.7985 41.3582 80.1778 41.9271C80.557 42.496 81.069 42.9511 81.7138 43.2924C82.3964 43.6338 83.1929 43.8044 84.1031 43.8044C85.0133 43.8044 85.9236 43.6338 86.8338 43.2924C87.744 42.9511 88.5025 42.515 89.1093 41.984Z" fill="black"/>
<path d="M168.22 32C168.22 49.6731 153.894 64 136.22 64C118.547 64 104.22 49.6731 104.22 32C104.22 14.3269 118.547 0 136.22 0C153.894 0 168.22 14.3269 168.22 32Z" fill="black"/>
<path d="M148.969 46.9333H140.322V33.462C140.322 32.2788 140.049 31.4292 139.503 30.9134C138.987 30.3673 138.335 30.0942 137.546 30.0942C137.182 30.0942 136.727 30.2308 136.181 30.5038C135.665 30.7769 135.164 31.1713 134.679 31.6871C134.193 32.2029 133.814 32.8097 133.541 33.5076V46.9333H124.894V13.7102H133.541V26.5444C134.391 25.2397 135.498 24.2536 136.863 23.5861C138.259 22.8883 139.791 22.5394 141.46 22.5394C143.159 22.5394 144.509 22.8276 145.51 23.4041C146.512 23.9502 147.255 24.6632 147.74 25.5431C148.226 26.423 148.544 27.3636 148.696 28.3648C148.878 29.366 148.969 30.3066 148.969 31.1865V46.9333Z" fill="white"/>
</g>
</svg>
